<?xml version="1.0" encoding="UTF-8" standalone="no"?> <svg
   xmlns:dc="http://purl.org/dc/elements/1.1/"
   xmlns:cc="http://creativecommons.org/ns#"
   xmlns:rdf="http://www.w3.org/1999/02/22-rdf-syntax-ns#"
   xmlns:svg="http://www.w3.org/2000/svg"
   xmlns="http://www.w3.org/2000/svg"
   id="svg21775"
   xml:space="preserve"
   enable-background="new 0 0 120 40"
   viewBox="0 0 37.753833 32.000001"
   height="32"
   width="37.753834"
   y="0px"
   x="0px"
   version="1.1"><metadata
     id="metadata21839"><rdf:RDF><cc:Work
         rdf:about=""><dc:format>image/svg+xml</dc:format><dc:type
           rdf:resource="http://purl.org/dc/dcmitype/StillImage" /><dc:title></dc:title></cc:Work></rdf:RDF></metadata><defs
     id="defs21837"><clipPath
       clipPathUnits="userSpaceOnUse"
       id="clipPath3643"><path
         d="m 0,551.986 530.973,0 L 530.973,0 0,0 0,551.986 Z"
         id="path3645" /></clipPath></defs><g
     style="stroke-width:0.95353347;stroke-miterlimit:4;stroke-dasharray:none"
     id="g3484"
     transform="matrix(1.243802,0,0,1.243802,-25.829221,-307.41054)"><circle
       cx="24.892128"
       cy="259.7547"
       r="2.7019999"
       id="circle21800"
       style="fill:#000000;fill-opacity:1;stroke:#ffffff;stroke-width:1.23959351;stroke-miterlimit:4;stroke-dasharray:none;stroke-opacity:1" 
/><circle
       cx="46.994133"
       cy="259.7547"
       r="2.7019999"
       id="circle21802"
       style="fill:#000000;fill-opacity:1;stroke:#ffffff;stroke-width:1.23959351;stroke-miterlimit:4;stroke-dasharray:none;stroke-opacity:1" /><path
       d="m 43.43413,250.2707 c 0,0 0,0 -5.404,-1.272 l -1.986,6.278"
       id="path21804"
       style="fill:none;stroke:#ffffff;stroke-width:1.23959351;stroke-linecap:round;stroke-linejoin:round;stroke-miterlimit:4;stroke-dasharray:none;stroke-opacity:1" 
/><circle
       cx="45.63913"
       cy="250.7077"
       r="2.1300001"
       id="circle21808"
       style="fill:#000000;fill-opacity:1;stroke:#ffffff;stroke-width:1.23959351;stroke-miterlimit:4;stroke-dasharray:none;stroke-opacity:1" 
/><ellipse
       cx="35.884129"
       cy="263.4707"
       rx="12.238"
       ry="7.987"
       id="ellipse21820"
       style="fill:#000000;fill-opacity:1;stroke:#ffffff;stroke-width:1.23959351;stroke-miterlimit:4;stroke-dasharray:none;stroke-opacity:1" /><g
       transform="translate(-24.79187,247.9187)"
       style="stroke-width:0.95353347;stroke-miterlimit:4;stroke-dasharray:none"
       id="g21824"><path
         style="fill:#ffffff;fill-opacity:1;stroke:none;stroke-width:12.00016975;stroke-miterlimit:4;stroke-dasharray:none"
         d="m 135.90625,159.65625 c -13.67995,0 -25.15625,11.4763 -25.15625,25.15625 0,13.67995 11.4763,24.78125 25.15625,24.78125 13.67995,0 
24.78125,-11.1013 24.78125,-24.78125 0,-13.67995 -11.1013,-25.15625 -24.78125,-25.15625 z"
         transform="matrix(0.07946,0,0,0.07946,45.637601,-0.68559946)"
         id="circle21826" /><path
         style="fill:#ffffff;fill-opacity:1;stroke:none;stroke-width:12.00016975;stroke-miterlimit:4;stroke-dasharray:none"
         d="m 244.46875,159.65625 c -13.68691,0 -25.1875,11.46934 -25.1875,25.15625 0,13.68691 11.50059,24.78125 25.1875,24.78125 13.68692,0 
24.78125,-11.09434 24.78125,-24.78125 0,-13.68691 -11.09433,-25.15625 -24.78125,-25.15625 z"
         transform="matrix(0.07946,0,0,0.07946,45.637601,-0.68559946)"
         id="circle21828" /><path
         d="m 56.507,19.229 c 1.066,1.066 2.786,1.271 4.212,1.271"
         id="path21830"
         style="fill:none;stroke:#ffffff;stroke-width:1.23959351;stroke-linecap:round;stroke-miterlimit:4;stroke-dasharray:none;stroke-opacity:1" 
/><path
         d="M 64.963,19.229 C 63.896,20.295 62.177,20.5 60.75,20.5"
         id="path21832"
         style="fill:none;stroke:#ffffff;stroke-width:1.23959351;stroke-linecap:round;stroke-miterlimit:4;stroke-dasharray:none;stroke-opacity:1" /></g></g></svg>
