<?xml version="1.0" encoding="UTF-8" standalone="no"?> <svg
   xmlns:dc="http://purl.org/dc/elements/1.1/"
   xmlns:cc="http://creativecommons.org/ns#"
   xmlns:rdf="http://www.w3.org/1999/02/22-rdf-syntax-ns#"
   xmlns:svg="http://www.w3.org/2000/svg"
   xmlns="http://www.w3.org/2000/svg"
   id="svg21775"
   xml:space="preserve"
   enable-background="new 0 0 120 40"
   viewBox="0 0 45.572776 32.000001"
   height="32"
   width="45.572777"
   y="0px"
   x="0px"
   version="1.1"><metadata
     id="metadata21839"><rdf:RDF><cc:Work
         rdf:about=""><dc:format>image/svg+xml</dc:format><dc:type
           rdf:resource="http://purl.org/dc/dcmitype/StillImage" /><dc:title></dc:title></cc:Work></rdf:RDF></metadata><defs
     id="defs21837"><clipPath
       clipPathUnits="userSpaceOnUse"
       id="clipPath3643"><path
         d="m 0,551.986 530.973,0 L 530.973,0 0,0 0,551.986 Z"
         id="path3645" /></clipPath></defs><g
     transform="matrix(0.19486497,0,0,0.19486497,-30.716616,70.910301)"
     id="g5562"><path
       style="fill:#ffffff"
       d="m 356.241,-333.104 c -16.606,0 -30.122,13.517 -30.122,30.125 0,0.127 0.009,0.261 0.009,0.391 l -19.414,28.141 c -3.137,-0.133 -6.297,0.41 
-9.292,1.648 -1.31,0.539 -2.548,1.202 -3.708,1.959 l -87.464,-36.165 c -1.471,-6.81 -6.134,-12.814 -13.032,-15.686 -11.196,-4.666 -24.101,0.644 
-28.766,11.84 -4.661,11.192 0.652,24.101 11.846,28.764 5.419,2.252 11.403,2.265 16.834,0.03 1.25,-0.514 2.435,-1.141 3.549,-1.869 l 87.661,36.247 c 
1.511,6.737 6.154,12.663 12.999,15.519 11.195,4.664 24.096,-0.652 28.756,-11.851 1.216,-2.904 1.776,-5.976 1.691,-9.03 l 27.776,-19.823 c 0.226,0.012 
0.451,0.012 0.677,0.012 16.616,0 30.126,-13.513 30.126,-30.125 0,-16.609 -13.51,-30.127 -30.126,-30.127 z m -166.156,19.415 c -6.368,-2.649 
-13.683,0.362 -16.336,6.729 -2.654,6.369 0.359,13.685 6.727,16.335 l 10.063,4.158 c -1.891,0.694 -3.86,1.042 -5.824,1.042 -2.197,0 -4.393,-0.43 
-6.485,-1.304 -6.506,-2.708 -10.44,-9.036 -10.44,-15.686 0,-2.169 0.425,-4.375 1.308,-6.505 3.594,-8.63 13.55,-12.73 22.184,-9.135 4.063,1.696 
7.105,4.806 8.833,8.517 l -10.03,-4.151 z m 131.373,67.745 c -3.594,8.643 -13.551,12.738 -22.187,9.14 -3.988,-1.664 -6.993,-4.693 -8.74,-8.322 l 
9.82,4.064 c 1.565,0.656 3.195,0.96 4.796,0.96 4.892,0 9.536,-2.889 11.536,-7.691 2.654,-6.364 -0.359,-13.68 -6.729,-16.329 l -10.132,-4.2 c 
3.905,-1.468 8.352,-1.539 12.505,0.191 4.186,1.747 7.438,5.013 9.167,9.209 1.719,4.188 1.712,8.801 -0.036,12.978 z m 34.783,-36.962 c -11.06,0 
-20.073,-9.003 -20.073,-20.073 0,-11.067 9.014,-20.074 20.073,-20.074 11.075,0 20.074,9.006 20.074,20.074 0,11.07 -8.999,20.073 -20.074,20.073 z"
       id="path5552" /><path
       style="fill:#ffffff"
       d="m 356.273,-318.09 c -8.325,0 -15.071,6.75 -15.071,15.074 0,8.332 6.746,15.082 15.071,15.082 8.332,0 15.085,-6.75 15.085,-15.082 0,-8.324 
-6.753,-15.074 -15.085,-15.074 z"
       id="path5554" /></g></svg>
