<?xml version="1.0" encoding="UTF-8" standalone="no"?><svg xmlns:rdf="http://www.w3.org/1999/02/22-rdf-syntax-ns#" xmlns="http://www.w3.org/2000/svg" enable-background="new 0 0 120 40" xml:space="preserve" height="32" width="33" version="1.1" y="0px" x="0px" xmlns:cc="http://creativecommons.org/ns#" xmlns:dc="http://purl.org/dc/elements/1.1/" viewBox="0 0 32.759216 32.000001"><g transform="matrix(.94 0 0 -.94 16 1)"><path style="fill:#e8e5e4;fill-rule:evenodd" d="m0 0c-9 0-16-7.3-16-16 0-7.2 4.7-13 11-15 0.82-0.15 1.1 0.35 1.1 0.79 0 0.39-0.014 1.4-0.022 2.8-4.5-0.98-5.5 2.2-5.5 2.2-0.74 1.9-1.8 2.4-1.8 2.4-1.5 1 0.11 0.99 0.11 0.99 1.6-0.12 2.5-1.7 2.5-1.7 1.5-2.5 3.8-1.8 4.7-1.4 0.15 1.1 0.57 1.8 1 2.2-3.6 0.41-7.4 1.8-7.4 8.1 0 1.8 0.64 3.2 1.7 4.4-0.17 0.41-0.73 2.1 0.16 4.3 0 0 1.4 0.44 4.5-1.7 1.3 0.36 2.7 0.54 4.1 0.55 1.4-0.006 2.8-0.19 4.1-0.55 3.1 2.1 4.5 1.7 4.5 1.7 0.89-2.2 0.33-3.9 0.16-4.3 1-1.1 1.7-2.6 1.7-4.4 0-6.3-3.8-7.6-7.4-8 0.58-0.5 1.1-1.5 1.1-3 0-2.2-0.02-3.9-0.02-4.5 0-0.44 0.29-0.94 1.1-0.78 6.5 2.2 11 8.3 11 15-1 8.7-8 16-17 16"/></g></svg>
